<svg width="398.94" height="720" viewBox="0 0 398.94 720" xmlns="http://www.w3.org/2000/svg" xmlns:xlink="http://www.w3.org/1999/xlink" overflow="visible"><defs></defs><g><g><path d="M9.35 720 398.94 720 398.94 0 9 0C8.91 2.95 8.67 4.28 8.5 6.64 8.45 7.4 8.4 8.16 8.34 8.91L6.58 65.44C6.12 70.96 5.64 76.48 5.16 81.99 3.58 100.14 1.95 118.91 0.89 137.4-0.51 161.73-0.25 186.38 1.65 210.66 2.62 222.99 3.89 235.51 5.12 247.61 6.27 258.93 5.46 270.64 6.4 282.2 10.63 334.17 8.37 385.09 5.6 428.04 4 452.92 4.62 477.24 5.34 501.29 6.06 525.18 8.55 548.58 11.12 570.3 17.1 620.68 13.53 670.24 8.62 718.4L9.35 720Z" fill="#264653"/></g><g><path d="M369.09 719.24C372.54 676.9 375.93 635.63 372.03 593.79 369.8 569.88 371.62 545.91 370.55 521.77 369.47 497.43 369.97 473.13 371.06 448.81 373.27 399.59 375.53 350.82 373.13 301.47 370.75 252.59 364.7 204.58 366.19 155.32 367.02 127.78 369.11 100.35 370.88 72.94 371.78 58.89 372.69 44.83 373.59 30.78 374.04 23.75 372.46 16.72 372.94 9.7 373.17 6.39 373.41 4.01 373.94 0.79L268.24 0.79C268.08 3.31 267.9 4.75 267.97 6.63 268.23 13.38 268.62 26.9 268.47 33.66 268.18 46.14 266.87 58.57 266.07 71.03 264.53 95.02 262.78 119.01 261.72 143.07 260.64 167.69 260.83 192.17 262.3 216.73 263.73 240.63 265.98 264.38 267.46 288.28 270.48 336.82 269.24 385.17 266.85 433.69 265.64 458.15 264.55 482.67 265.12 507.22 265.64 529.93 263.39 552.49 265.42 574.95 269.77 622.97 267.74 670.59 264.1 719.25L369.09 719.25Z" fill="#E9C369"/><path d="M149.31 138.88C149.41 127.73 149.4 116.26 149.58 104.78L74.22 2.28C73.72 1.6 73.47 0.8 73.45 0L47.67 0C47.86 0.66 48.16 1.31 48.59 1.89L149.31 138.88Z" fill="#264653"/><path d="M48.59 360.8 149.84 498.51C150.21 499.02 150.65 499.44 151.13 499.79 150.89 488.57 151.02 477.36 151.39 466.15L74.22 361.2C73.19 359.8 73.18 357.89 74.2 356.48L151.34 249.99C150.7 238.01 150.14 226.07 149.73 214.07L48.56 353.73C47.03 355.84 47.04 358.7 48.59 360.8Z" fill="#264653"/><path d="M74.2 715.4 151.52 608.67C151.46 598.48 151.32 588.48 151.11 578.9L51.6 716.27C50.8 717.38 50.43 718.7 50.47 720L74.15 720C73.2 718.61 73.21 716.77 74.2 715.4Z" fill="#264653"/><path d="M149.58 104.78C149.77 92.29 150.18 79.78 151.19 67.64 151.39 65.17 151.52 62.71 151.61 60.24L108.75 1.94C108.32 1.36 108.08 0.68 108.01 0L73.45 0C73.47 0.8 73.72 1.6 74.22 2.28L149.58 104.78Z" fill="#E76F51"/><path d="M74.22 361.2 151.39 466.16C151.64 458.61 151.99 451.07 152.43 443.52 152.85 436.24 153.25 428.96 153.62 421.7 153.38 421.5 153.16 421.27 152.97 421.01L108.76 360.87C107.73 359.47 107.72 357.56 108.74 356.15L152.95 295.11C153.24 294.71 153.59 294.41 153.97 294.16 153.03 279.27 152.12 264.6 151.34 250L74.2 356.48C73.18 357.89 73.19 359.8 74.22 361.2Z" fill="#E76F51"/><path d="M108.73 715.06 151.17 656.47C151.51 640.61 151.61 624.41 151.51 608.66L74.2 715.4C73.21 716.77 73.19 718.61 74.15 720L108.91 720 108.75 719.78C107.72 718.38 107.71 716.47 108.73 715.06Z" fill="#E76F51"/><path d="M151.61 60.24C151.96 51 151.68 41.77 151.65 32.5L129.04 1.75C128.65 1.22 128.41 0.62 128.31 0L108.01 0C108.08 0.69 108.32 1.36 108.75 1.94L151.61 60.24Z" fill="#FFFFFF"/><path d="M152.95 295.11 108.74 356.15C107.72 357.56 107.73 359.46 108.76 360.87L152.97 421C153.16 421.26 153.38 421.49 153.62 421.69 154.08 412.64 154.48 403.6 154.81 394.57 154.11 394.31 153.46 393.88 152.97 393.21L129.04 360.66C128.01 359.26 128 357.35 129.02 355.94L152.95 322.91C153.54 322.09 154.37 321.58 155.26 321.37 155 312.98 154.63 304.58 154.1 296.17 154.06 295.5 154.02 294.83 153.97 294.16 153.59 294.41 153.24 294.71 152.95 295.11Z" fill="#FFFFFF"/><path d="M129.02 714.87 150.23 685.59C150.65 676.16 150.96 666.39 151.17 656.48L108.73 715.07C107.71 716.48 107.72 718.38 108.75 719.79L108.91 720.01 129.34 720.01 129.03 719.59C128.01 718.18 128 716.28 129.02 714.87Z" fill="#FFFFFF"/><path d="M151.65 32.5C151.64 30.16 151.64 27.82 151.69 25.47 151.69 25.47 150.56 11.15 150.87-0.01L128.32-0.01C128.42 0.61 128.66 1.21 129.05 1.74L151.65 32.5Z" fill="#2B9D8F"/><path d="M152.95 322.92 129.02 355.95C128 357.36 128.01 359.26 129.04 360.67L152.97 393.22C153.46 393.88 154.11 394.32 154.81 394.58 155.7 370.2 156.01 345.84 155.26 321.38 154.37 321.59 153.54 322.1 152.95 322.92Z" fill="#2B9D8F"/><path d="M129.02 714.87C128 716.28 128.01 718.18 129.04 719.59L129.35 720.01 148.05 720.01C148.98 709.39 149.7 697.78 150.24 685.59L129.02 714.87Z" fill="#2B9D8F"/><path d="M261.44 574.83C260.19 560.94 260.54 546.87 260.88 533.26 261.1 524.52 261.33 515.48 261.12 506.61 260.56 482.21 261.62 457.65 262.85 432.55 264.96 389.68 266.67 338.87 263.47 287.11 262.75 275.57 261.85 263.86 260.97 252.53 260.03 240.35 259.05 227.76 258.31 215.32 256.84 190.68 256.64 165.68 257.72 141 258.54 122.36 259.78 103.48 260.99 85.22 261.36 79.69 261.72 74.16 262.08 68.64 262.35 64.45 262.68 60.2 263 56.09 263.63 47.96 264.29 39.55 264.48 31.32 264.63 24.56 264.22 10.78 263.98 4.45 263.93 3.12 263.99 1.61 264.08 0.02L238.33 0.02C237.82 2.1 237.66 4.45 237.49 6.89 237.44 7.65 237.39 8.41 237.32 9.16L232.63 65.69C232.17 71.21 231.7 76.73 231.23 82.24 229.68 100.39 228.07 119.16 227.02 137.65 225.64 161.98 225.89 186.63 227.77 210.91 228.72 223.24 229.98 235.76 231.19 247.86 232.33 259.18 233.5 270.89 234.43 282.45 238.6 334.42 236.37 385.34 233.64 428.29 232.06 453.17 230.7 477.49 231.42 501.54 232.13 525.43 234.58 548.83 237.12 570.55 243.01 620.93 239.22 671.84 234.38 720L260.95 720 260.11 719.94C263.34 676.64 266.02 625.55 261.44 574.83Z" fill="#264653"/><path d="M223.9 587.01C220.89 561.94 218.29 539.32 216.97 516.35 215.76 495.08 215.96 471.79 217.63 443.05L217.76 440.87C220.51 393.49 223.35 344.51 220.3 296.07 219.29 280.07 217.75 263.88 216.26 248.22 213.2 216.11 210.04 182.9 211.34 149.61 212.2 127.64 214.11 105.43 215.96 83.94 216.44 78.32 216.93 72.71 217.39 67.09L220.89 24.93C221.08 22.59 221.27 20.24 221.46 17.9 221.84 13.21 222.22 8.52 222.64 3.84 222.75 2.59 222.87 1.31 223.02 5.32907e-15L209.83 5.32907e-15C209.23 2.86 209.16 5.95 208.91 8.9 208.38 15.29 207.85 21.68 207.32 28.06 206.29 40.52 205.25 52.97 204.22 65.43 202.23 89.42 199.97 113.41 198.61 137.47 197.22 162.09 197.47 186.57 199.36 211.13 201.21 235.03 204.1 258.78 206.02 282.68 209.91 331.22 208.31 379.57 205.23 428.09 203.68 452.55 202.27 477.07 203 501.62 203.69 524.85 206.03 547.92 208.72 570.89 214.48 620.18 210.96 670.06 205.95 719.99L219.28 719.99C219.51 717.84 219.73 715.7 219.95 713.55 224.37 671.87 228.92 628.76 223.9 587.01Z" fill="#264653"/><path d="M201.48 586.65C198.67 563.25 195.92 539.8 194.57 516.18 193.18 491.84 193.82 467.54 195.23 443.22 198.08 394 201 345.23 197.9 295.88 194.83 247 187.03 198.99 188.95 149.73 190.02 122.19 192.72 94.76 194.99 67.35 196.16 53.3 197.32 39.24 198.49 25.19 199.07 18.16 199.61 11.13 200.24 4.11 200.36 2.74 200.49 1.37 200.65 0.01L159.93 0.01C160.36 9.68 160.69 21.79 160.52 28.36 160.21 40.85 161.46 53.27 160.42 65.73 158.43 89.72 158.17 113.71 156.81 137.77 155.42 162.39 156.41 190.19 157.56 212.44 158.8 236.38 160.3 259.09 162.22 282.99 166.11 331.53 165.51 379.88 162.43 428.4 160.88 452.86 159.47 477.38 160.2 501.93 160.89 525.16 158.35 530.21 158.91 553.19 160.12 602.75 161.6 668.53 157.11 720.01L196.89 720.01C201.59 675.36 206.78 630.76 201.48 586.65Z" fill="#264653"/><path d="M208.73 570.9C206.05 547.93 203.7 524.85 203.01 501.63 202.28 477.08 203.68 452.56 205.24 428.1 208.32 379.58 209.93 331.23 206.03 282.69 204.11 258.8 201.22 235.05 199.37 211.14 197.47 186.57 197.22 162.1 198.62 137.48 199.98 113.41 202.24 89.43 204.23 65.44 205.26 52.98 206.3 40.53 207.33 28.07 207.86 21.68 208.39 15.29 208.92 8.91 209.16 5.96 209.24 2.87 209.84 0.01L200.66 0.01C200.5 1.37 200.37 2.74 200.25 4.11 199.62 11.13 199.08 18.16 198.5 25.19 197.33 39.24 196.17 53.3 195 67.35 192.73 94.76 190.03 122.19 188.96 149.73 187.04 198.99 194.84 247.01 197.91 295.88 201.01 345.23 198.09 394.01 195.24 443.22 193.83 467.54 193.19 491.84 194.58 516.18 195.93 539.8 198.68 563.26 201.49 586.65 206.79 630.75 201.6 675.36 196.91 720L205.97 720C210.97 670.06 214.49 620.19 208.73 570.9Z" fill="#E76F51"/><path d="M162.23 282.98C160.31 259.09 158.81 236.38 157.57 212.43 156.42 190.19 155.42 162.39 156.82 137.76 158.18 113.69 158.44 89.71 160.43 65.72 161.46 53.26 160.22 40.85 160.53 28.35 160.69 21.78 160.37 9.67 159.94-1.42109e-14L150.87-1.42109e-14C150.56 11.16 151.69 25.48 151.69 25.48 151.65 27.82 151.65 30.17 151.65 32.51 151.68 41.77 151.96 51 151.61 60.25 151.52 62.71 151.39 65.18 151.19 67.65 150.18 79.79 149.77 92.3 149.58 104.79 149.4 116.28 149.41 127.74 149.31 138.89L48.59 1.89C48.16 1.31 47.86 0.66 47.67 0L18.62 0C18.52 1.81 19.01 3.64 20.14 5.17L147.64 178.59 20.11 354.66C18.07 357.48 18.08 361.29 20.14 364.09L147.64 537.51 20.11 713.58C18.74 715.48 18.32 717.82 18.8 720L50.47 720C50.42 718.7 50.79 717.38 51.6 716.27L151.1 578.9C151.31 588.48 151.45 598.47 151.51 608.67 151.61 624.42 151.51 640.62 151.17 656.48 150.96 666.39 150.64 676.16 150.23 685.59 149.69 697.77 148.97 709.38 148.04 720.01L157.12 720.01C161.61 668.53 160.13 602.75 158.92 553.19 158.36 530.21 160.9 525.16 160.21 501.93 159.48 477.38 160.88 452.86 162.44 428.4 165.52 379.87 166.12 331.52 162.23 282.98ZM154.8 394.57C154.47 403.6 154.07 412.64 153.61 421.69 153.24 428.96 152.84 436.23 152.42 443.51 151.98 451.06 151.63 458.61 151.38 466.15 151.01 477.36 150.88 488.57 151.12 499.79 150.64 499.44 150.2 499.02 149.83 498.51L48.59 360.8C47.04 358.7 47.03 355.84 48.56 353.73L149.72 214.07C150.13 226.07 150.69 238.01 151.33 249.99 152.11 264.6 153.02 279.26 153.96 294.15 154 294.82 154.04 295.49 154.09 296.16 154.62 304.58 154.99 312.98 155.25 321.36 156 345.83 155.69 370.19 154.8 394.57Z" fill="#E9C369"/><path d="M237.11 570.55C234.57 548.83 232.12 525.43 231.41 501.54 230.69 477.49 232.05 453.17 233.63 428.29 236.36 385.34 238.59 334.42 234.42 282.45 233.49 270.89 232.32 259.18 231.18 247.86 229.97 235.76 228.71 223.25 227.76 210.91 225.88 186.62 225.63 161.97 227.01 137.65 228.06 119.16 229.66 100.39 231.22 82.24 231.69 76.72 232.16 71.2 232.62 65.69L237.31 9.16C237.37 8.41 237.42 7.65 237.48 6.89 237.65 4.45 237.81 2.1 238.32 0.02L223.03 0.02C222.88 1.32 222.76 2.61 222.65 3.86 222.23 8.54 221.85 13.23 221.47 17.92 221.28 20.27 221.09 22.61 220.9 24.95L217.4 67.11C216.93 72.72 216.45 78.34 215.97 83.96 214.12 105.44 212.21 127.66 211.35 149.63 210.05 182.92 213.21 216.13 216.27 248.24 217.76 263.9 219.3 280.09 220.31 296.09 223.35 344.53 220.51 393.52 217.77 440.89L217.64 443.07C215.97 471.81 215.76 495.11 216.98 516.37 218.29 539.34 220.89 561.96 223.91 587.03 228.93 628.78 224.37 671.89 219.97 713.58 219.74 715.73 219.52 717.87 219.3 720.02L234.39 720.02C239.22 671.83 243 620.93 237.11 570.55Z" fill="#E9C369"/><path d="M363.84 495.5 323.12 476.56C320.86 475.51 318.25 475.51 316 476.56L275.36 495.49C272.39 496.88 270.48 499.86 270.48 503.14L270.48 503.77C270.48 507.04 272.37 510.02 275.34 511.41L315.98 530.47C318.25 531.53 320.87 531.53 323.14 530.47L363.86 511.41C364.73 511 365.5 510.44 366.16 509.79 366.06 505.6 365.99 501.32 365.97 496.92 365.34 496.35 364.63 495.87 363.84 495.5ZM360.07 503.63C360.07 505.36 359.07 506.94 357.5 507.68L321.46 524.59C320.26 525.15 318.86 525.15 317.66 524.59L281.7 507.68C280.13 506.94 279.13 505.37 279.13 503.63L279.13 503.3C279.13 501.56 280.14 499.98 281.72 499.25L317.68 482.56C318.87 482.01 320.25 482.01 321.44 482.56L357.48 499.26C359.06 499.99 360.07 501.57 360.07 503.32L360.07 503.63Z" fill="#FFFFFF"/><path d="M363.84 423.77 323.12 404.83C320.86 403.78 318.25 403.78 316 404.83L275.36 423.76C273.35 424.7 271.84 426.38 271.07 428.38 271 429.9 270.93 431.43 270.85 432.93 270.83 433.37 270.81 433.81 270.79 434.25 271.43 436.61 273.07 438.62 275.34 439.68L315.98 458.74C318.25 459.8 320.87 459.8 323.14 458.74L363.86 439.68C365.46 438.93 366.73 437.71 367.58 436.24 367.7 433.46 367.83 430.68 367.95 427.89 367.13 426.12 365.69 424.64 363.84 423.77ZM360.07 431.9C360.07 433.63 359.07 435.21 357.5 435.95L321.46 452.86C320.26 453.42 318.86 453.42 317.66 452.86L281.7 435.95C280.13 435.21 279.13 433.64 279.13 431.9L279.13 431.57C279.13 429.83 280.14 428.25 281.72 427.52L317.68 410.83C318.87 410.28 320.25 410.28 321.44 410.83L357.48 427.53C359.06 428.26 360.07 429.84 360.07 431.59L360.07 431.9Z" fill="#FFFFFF"/><path d="M275.33 367.97 315.97 387.03C318.24 388.09 320.86 388.09 323.13 387.03L363.85 367.97C366.82 366.58 368.71 363.6 368.71 360.33L368.71 359.71C368.71 356.43 366.81 353.44 363.83 352.06L323.11 333.12C320.85 332.07 318.24 332.07 315.99 333.12L275.35 352.05C274.56 352.42 273.85 352.9 273.23 353.47 273.21 357.83 273.16 362.14 273.1 366.43 273.76 367.05 274.5 367.58 275.33 367.97ZM279.13 359.85C279.13 358.11 280.14 356.53 281.72 355.8L317.68 339.11C318.87 338.56 320.25 338.56 321.44 339.11L357.48 355.81C359.06 356.54 360.07 358.12 360.07 359.87L360.07 360.2C360.07 361.93 359.07 363.51 357.5 364.25L321.46 381.16C320.26 381.73 318.86 381.72 317.66 381.16L281.7 364.25C280.13 363.51 279.13 361.94 279.13 360.2L279.13 359.85Z" fill="#FFFFFF"/><path d="M363.84 280.33 323.12 261.39C320.86 260.34 318.25 260.34 316 261.39L275.36 280.32C273.55 281.16 272.14 282.6 271.32 284.34 271.37 285.09 271.42 285.85 271.47 286.6 271.61 288.79 271.72 290.98 271.84 293.17 272.68 294.48 273.88 295.55 275.35 296.24L315.99 315.3C318.26 316.36 320.88 316.36 323.15 315.3L363.87 296.24C366.39 295.06 368.12 292.73 368.59 290.05 368.5 288.49 368.41 286.94 368.31 285.39 367.59 283.19 366.01 281.34 363.84 280.33ZM360.07 288.46C360.07 290.19 359.07 291.77 357.5 292.51L321.46 309.42C320.26 309.99 318.86 309.98 317.66 309.42L281.7 292.51C280.13 291.77 279.13 290.2 279.13 288.46L279.13 288.13C279.13 286.39 280.14 284.81 281.72 284.08L317.68 267.39C318.87 266.84 320.25 266.84 321.44 267.39L357.48 284.09C359.06 284.82 360.07 286.4 360.07 288.15L360.07 288.46Z" fill="#FFFFFF"/><path d="M323.12 189.67C320.86 188.62 318.25 188.62 316 189.67L275.36 208.6C272.39 209.99 270.48 212.97 270.48 216.25L270.48 216.88C270.48 220.15 272.37 223.13 275.34 224.52L315.98 243.58C318.25 244.64 320.87 244.64 323.14 243.58L363.86 224.52C363.92 224.49 363.98 224.45 364.04 224.41 363.69 219.04 363.37 213.65 363.09 208.25L323.12 189.67ZM360.07 216.73C360.07 218.46 359.07 220.04 357.5 220.78L321.46 237.69C320.26 238.26 318.86 238.25 317.66 237.69L281.7 220.78C280.13 220.04 279.13 218.47 279.13 216.73L279.13 216.4C279.13 214.66 280.14 213.08 281.72 212.35L317.68 195.66C318.87 195.11 320.25 195.11 321.44 195.66L357.48 212.36C359.06 213.09 360.07 214.67 360.07 216.42L360.07 216.73Z" fill="#FFFFFF"/><path d="M323.12 117.94C320.86 116.89 318.25 116.89 316 117.94L275.36 136.87C272.39 138.26 270.48 141.24 270.48 144.52L270.48 145.15C270.48 148.42 272.37 151.4 275.34 152.79L315.98 171.85C318.25 172.91 320.87 172.91 323.14 171.85L362.19 153.57C362.19 153.49 362.19 153.41 362.2 153.33 362.37 147.7 362.59 142.06 362.86 136.41L323.12 117.94ZM360.07 145.01C360.07 146.74 359.07 148.32 357.5 149.06L321.46 165.97C320.26 166.54 318.86 166.53 317.66 165.97L281.7 149.06C280.13 148.32 279.13 146.75 279.13 145.01L279.13 144.68C279.13 142.94 280.14 141.36 281.72 140.63L317.68 123.94C318.87 123.39 320.25 123.39 321.44 123.94L357.48 140.64C359.06 141.37 360.07 142.95 360.07 144.7L360.07 145.01Z" fill="#FFFFFF"/><path d="M363.84 65.16 323.12 46.22C320.86 45.17 318.25 45.17 316 46.22L275.36 65.15C272.39 66.54 270.48 69.52 270.48 72.8L270.48 73.43C270.48 76.7 272.37 79.68 275.34 81.07L315.98 100.13C318.25 101.19 320.87 101.19 323.14 100.13L363.86 81.07C364.8 80.63 365.61 80.02 366.31 79.3 366.5 76.38 366.7 73.46 366.89 70.54L367.07 67.81C366.24 66.7 365.15 65.77 363.84 65.16ZM360.07 73.29C360.07 75.02 359.07 76.6 357.5 77.34L321.46 94.25C320.26 94.82 318.86 94.81 317.66 94.25L281.7 77.34C280.13 76.6 279.13 75.03 279.13 73.29L279.13 72.96C279.13 71.22 280.14 69.64 281.72 68.91L317.68 52.22C318.87 51.67 320.25 51.67 321.44 52.22L357.48 68.92C359.06 69.65 360.07 71.23 360.07 72.98L360.07 73.29Z" fill="#FFFFFF"/><path d="M271.97 4.13C272 4.88 272.03 5.72 272.06 6.6 272.89 7.76 273.99 8.73 275.33 9.36L315.97 28.42C318.24 29.48 320.86 29.48 323.13 28.42L363.85 9.36C366.82 7.97 368.71 4.99 368.71 1.72L368.71 1.09C368.71 0.72 368.68 0.36 368.63 0L359.86 0C359.98 0.4 360.06 0.81 360.06 1.24L360.06 1.57C360.06 3.3 359.06 4.88 357.49 5.62L321.45 22.53C320.25 23.1 318.85 23.09 317.65 22.53L281.7 5.61C280.13 4.87 279.13 3.3 279.13 1.56L279.13 1.24C279.13 0.81 279.21 0.4 279.33 0L272.09 0C272 1.57 271.93 3.01 271.97 4.13Z" fill="#FFFFFF"/><path d="M365.75 711.9C365.18 711.41 364.54 710.99 363.84 710.66L323.12 691.72C320.86 690.67 318.25 690.67 316 691.72L275.36 710.65C272.39 712.04 270.48 715.02 270.48 718.3L270.48 718.93C270.48 719.29 270.51 719.64 270.56 719.99L279.32 719.99C279.21 719.6 279.13 719.2 279.13 718.79L279.13 718.46C279.13 716.72 280.14 715.14 281.72 714.41L317.68 697.72C318.87 697.17 320.25 697.17 321.44 697.72L357.48 714.42C359.06 715.15 360.07 716.73 360.07 718.48L360.07 718.81C360.07 719.23 359.99 719.63 359.88 720.02L366.19 720.02 365.1 719.93C365.32 717.25 365.54 714.58 365.75 711.9Z" fill="#FFFFFF"/><path d="M275.33 654.86 315.97 673.92C318.24 674.98 320.86 674.98 323.13 673.92L363.85 654.86C366.82 653.47 368.71 650.49 368.71 647.22L368.71 646.6C368.71 643.32 366.81 640.33 363.83 638.95L323.12 620C320.86 618.95 318.25 618.95 316 620L275.36 638.93C273.89 639.61 272.68 640.69 271.84 642 271.8 645.19 271.75 648.36 271.68 651.52 272.52 652.95 273.77 654.13 275.33 654.86ZM279.13 646.74C279.13 645 280.14 643.42 281.72 642.69L317.68 626C318.87 625.45 320.25 625.45 321.44 626L357.48 642.7C359.06 643.43 360.07 645.01 360.07 646.76L360.07 647.09C360.07 648.82 359.07 650.4 357.5 651.14L321.46 668.05C320.26 668.62 318.86 668.61 317.66 668.05L281.7 651.14C280.13 650.4 279.13 648.83 279.13 647.09L279.13 646.74Z" fill="#FFFFFF"/><path d="M363.84 567.22 323.12 548.28C320.86 547.23 318.25 547.23 316 548.28L275.36 567.22C272.39 568.61 270.48 571.59 270.48 574.87L270.48 575.5C270.48 578.77 272.37 581.75 275.34 583.14L315.98 602.2C318.25 603.26 320.87 603.26 323.14 602.2L363.86 583.14C365.23 582.5 366.36 581.51 367.19 580.32 367.05 576.77 366.96 573.22 366.91 569.68 366.1 568.65 365.07 567.79 363.84 567.22ZM360.07 575.35C360.07 577.08 359.07 578.66 357.5 579.4L321.46 596.31C320.26 596.88 318.86 596.87 317.66 596.31L281.7 579.4C280.13 578.66 279.13 577.09 279.13 575.35L279.13 575.02C279.13 573.28 280.14 571.7 281.72 570.97L317.68 554.28C318.87 553.73 320.25 553.73 321.44 554.28L357.48 570.98C359.06 571.71 360.07 573.29 360.07 575.04L360.07 575.35Z" fill="#FFFFFF"/><path d="M357.48 499.24 321.44 482.54C320.25 481.99 318.87 481.99 317.68 482.54L281.72 499.23C280.14 499.96 279.13 501.54 279.13 503.28L279.13 503.61C279.13 505.34 280.13 506.92 281.7 507.66L317.66 524.57C318.86 525.14 320.26 525.14 321.46 524.57L357.5 507.66C359.07 506.92 360.07 505.35 360.07 503.61L360.07 503.28C360.07 501.56 359.06 499.97 357.48 499.24Z" fill="#2B9D8F"/><path d="M357.48 427.52 321.44 410.82C320.25 410.27 318.87 410.27 317.68 410.82L281.72 427.51C280.14 428.24 279.13 429.82 279.13 431.56L279.13 431.89C279.13 433.62 280.13 435.2 281.7 435.94L317.66 452.85C318.86 453.42 320.26 453.42 321.46 452.85L357.5 435.94C359.07 435.2 360.07 433.63 360.07 431.89L360.07 431.56C360.07 429.83 359.06 428.25 357.48 427.52Z" fill="#2B9D8F"/><path d="M281.7 364.23 317.66 381.14C318.86 381.71 320.26 381.71 321.46 381.14L357.5 364.23C359.07 363.49 360.07 361.92 360.07 360.18L360.07 359.85C360.07 358.11 359.06 356.53 357.48 355.79L321.44 339.09C320.25 338.54 318.87 338.54 317.68 339.09L281.72 355.78C280.14 356.51 279.13 358.09 279.13 359.83L279.13 360.16C279.13 361.91 280.13 363.49 281.7 364.23Z" fill="#2B9D8F"/><path d="M357.48 284.07 321.44 267.37C320.25 266.82 318.87 266.82 317.68 267.37L281.72 284.06C280.14 284.79 279.13 286.37 279.13 288.11L279.13 288.44C279.13 290.17 280.13 291.75 281.7 292.49L317.66 309.4C318.86 309.97 320.26 309.97 321.46 309.4L357.5 292.49C359.07 291.75 360.07 290.18 360.07 288.44L360.07 288.11C360.07 286.39 359.06 284.8 357.48 284.07Z" fill="#2B9D8F"/><path d="M357.48 212.35 321.44 195.65C320.25 195.1 318.87 195.1 317.68 195.65L281.72 212.34C280.14 213.07 279.13 214.65 279.13 216.39L279.13 216.72C279.13 218.45 280.13 220.03 281.7 220.77L317.66 237.68C318.86 238.25 320.26 238.25 321.46 237.68L357.5 220.77C359.07 220.03 360.07 218.46 360.07 216.72L360.07 216.39C360.07 214.66 359.06 213.08 357.48 212.35Z" fill="#2B9D8F"/><path d="M357.48 140.63 321.44 123.93C320.25 123.38 318.87 123.38 317.68 123.93L281.72 140.62C280.14 141.35 279.13 142.93 279.13 144.67L279.13 145C279.13 146.73 280.13 148.31 281.7 149.05L317.66 165.96C318.86 166.53 320.26 166.53 321.46 165.96L357.5 149.05C359.07 148.31 360.07 146.74 360.07 145L360.07 144.67C360.07 142.94 359.06 141.36 357.48 140.63Z" fill="#2B9D8F"/><path d="M357.48 68.9 321.44 52.2C320.25 51.65 318.87 51.65 317.68 52.2L281.72 68.9C280.14 69.63 279.13 71.21 279.13 72.95L279.13 73.28C279.13 75.01 280.13 76.59 281.7 77.33L317.66 94.24C318.86 94.81 320.26 94.81 321.46 94.24L357.5 77.33C359.07 76.59 360.07 75.02 360.07 73.28L360.07 72.95C360.07 71.22 359.06 69.64 357.48 68.9Z" fill="#2B9D8F"/><path d="M279.13 1.57C279.13 3.3 280.13 4.88 281.7 5.62L317.66 22.53C318.86 23.1 320.26 23.1 321.46 22.53L357.5 5.61C359.07 4.87 360.07 3.3 360.07 1.56L360.07 1.24C360.07 0.81 359.99 0.4 359.87 0L279.33 0C279.21 0.4 279.13 0.81 279.13 1.24L279.13 1.57Z" fill="#2B9D8F"/><path d="M360.07 718.46C360.07 716.72 359.06 715.14 357.48 714.4L321.44 697.7C320.25 697.15 318.87 697.15 317.68 697.7L281.72 714.39C280.14 715.12 279.13 716.7 279.13 718.44L279.13 718.77C279.13 719.19 279.21 719.59 279.32 719.97L359.88 719.97C359.99 719.58 360.07 719.18 360.07 718.76L360.07 718.46Z" fill="#2B9D8F"/><path d="M281.7 651.12 317.66 668.03C318.86 668.6 320.26 668.6 321.46 668.03L357.5 651.12C359.07 650.38 360.07 648.81 360.07 647.07L360.07 646.74C360.07 645 359.06 643.42 357.48 642.68L321.44 625.98C320.25 625.43 318.87 625.43 317.68 625.98L281.72 642.67C280.14 643.4 279.13 644.98 279.13 646.72L279.13 647.05C279.13 648.81 280.13 650.38 281.7 651.12Z" fill="#2B9D8F"/><path d="M357.48 570.96 321.44 554.26C320.25 553.71 318.87 553.71 317.68 554.26L281.72 570.95C280.14 571.68 279.13 573.26 279.13 575L279.13 575.33C279.13 577.06 280.13 578.64 281.7 579.38L317.66 596.29C318.86 596.86 320.26 596.86 321.46 596.29L357.5 579.38C359.07 578.64 360.07 577.07 360.07 575.33L360.07 575C360.07 573.28 359.06 571.7 357.48 570.96Z" fill="#2B9D8F"/><path d="M374.89 551.32C374.94 541.39 375 531.12 374.55 520.94 373.62 499.84 373.78 476.69 375.06 448.1L375.16 445.88C377.3 398.18 379.51 348.85 377.13 299.9 376.35 283.75 375.15 267.46 373.99 251.7 371.64 219.68 369.2 186.57 370.19 153.58 370.85 131.68 372.33 109.46 373.76 87.98 374.14 82.34 374.51 76.7 374.87 71.07L377.58 28.77C377.82 24.99 377.53 21.28 377.25 17.7 376.97 14.2 376.71 10.89 376.94 7.64 377.11 5.23 377.3 2.56 377.62-4.44089e-15L369.56-4.44089e-15 368.64-4.44089e-15C368.69 0.36 368.72 0.72 368.72 1.09L368.72 1.71C368.72 4.99 366.82 7.97 363.86 9.35L323.14 28.41C320.87 29.47 318.25 29.47 315.98 28.41L275.33 9.36C273.99 8.73 272.88 7.76 272.06 6.6 272.03 5.71 272 4.87 271.97 4.13 271.93 3.01 272 1.57 272.09 0L264.07 0C263.98 1.6 263.92 3.1 263.97 4.43 264.21 10.77 264.62 24.54 264.47 31.3 264.28 39.53 263.63 47.94 262.99 56.07 262.67 60.18 262.34 64.43 262.07 68.62 261.72 74.15 261.35 79.67 260.98 85.2 259.77 103.46 258.53 122.34 257.71 140.98 256.63 165.66 256.83 190.66 258.3 215.3 259.04 227.74 260.02 240.34 260.96 252.51 261.84 263.84 262.75 275.55 263.46 287.09 266.67 338.85 264.95 389.66 262.84 432.53 261.61 457.64 260.55 482.2 261.11 506.59 261.31 515.46 261.09 524.5 260.87 533.24 260.53 546.85 260.18 560.92 261.43 574.81 266.01 625.53 263.33 676.62 260.1 719.92L260.94 719.98 268.13 719.98 270.55 719.98C270.5 719.63 270.47 719.28 270.47 718.92L270.47 718.29C270.47 715.01 272.37 712.02 275.35 710.64L316 691.73C318.26 690.68 320.87 690.68 323.12 691.73L363.84 710.67C364.54 711 365.18 711.42 365.75 711.91 365.53 714.59 365.32 717.26 365.1 719.92L366.19 720.01 373.12 720.01C376.5 678.42 379.95 635.44 376.01 593.01 374.74 579.2 374.82 565.03 374.89 551.32ZM270.97 56.71C271.61 48.47 272.28 39.95 272.47 31.49 272.56 27.46 272.47 21.21 272.32 15.33L314 34.84C317.52 36.49 321.6 36.49 325.12 34.84L369 14.33C369.08 15.68 369.18 17.02 369.28 18.34 369.55 21.79 369.81 25.05 369.6 28.26L367.6 59.53 325.12 39.68C321.6 38.03 317.52 38.03 314 39.68L270.73 59.93C270.81 58.85 270.89 57.77 270.97 56.71ZM365.97 496.93C366 501.33 366.06 505.61 366.16 509.8 365.49 510.45 364.73 511.01 363.86 511.42L323.14 530.48C320.87 531.54 318.25 531.54 315.98 530.48L275.34 511.42C272.38 510.03 270.48 507.05 270.48 503.78L270.48 503.15C270.48 499.87 272.38 496.88 275.36 495.5L316 476.56C318.26 475.51 320.87 475.51 323.12 476.56L363.84 495.5C364.63 495.87 365.34 496.35 365.97 496.93ZM365.97 489.1 325.12 470.01C321.6 468.36 317.52 468.36 314 470.01L268.99 491.08C269.03 475.78 269.58 460.35 270.29 444.72L314 465.17C317.52 466.82 321.6 466.82 325.12 465.17L367.17 445.52 367.07 447.73C366.39 462.87 366.03 476.48 365.97 489.1ZM269.19 515.92 314 536.9C317.52 538.55 321.6 538.55 325.12 536.9L366.41 517.6C366.46 518.84 366.51 520.07 366.56 521.29 367 531.28 366.95 541.44 366.89 551.27 366.87 554.57 366.85 557.89 366.85 561.23L325.12 541.72C321.6 540.07 317.52 540.07 314 541.72L268.98 562.79C268.9 562.83 268.82 562.88 268.74 562.92 268.4 553.07 268.64 543.14 268.88 533.45 269.02 527.71 269.16 521.83 269.19 515.92ZM270.48 574.87C270.48 571.59 272.38 568.6 275.36 567.22L316 548.28C318.26 547.23 320.87 547.23 323.12 548.28L363.84 567.22C365.07 567.79 366.1 568.65 366.91 569.67 366.96 573.21 367.05 576.76 367.19 580.31 366.36 581.5 365.23 582.49 363.86 583.13L323.14 602.19C320.87 603.25 318.25 603.25 315.98 602.19L275.34 583.13C272.38 581.74 270.48 578.76 270.48 575.49L270.48 574.87ZM363.86 439.69 323.14 458.75C320.87 459.81 318.25 459.81 315.98 458.75L275.34 439.69C273.06 438.62 271.43 436.61 270.79 434.26 270.81 433.82 270.83 433.38 270.85 432.94 270.92 431.44 271 429.91 271.07 428.39 271.84 426.39 273.35 424.71 275.36 423.77L316 404.84C318.26 403.79 320.87 403.79 323.12 404.84L363.84 423.78C365.69 424.64 367.13 426.12 367.95 427.91 367.83 430.7 367.71 433.48 367.58 436.26 366.73 437.72 365.46 438.94 363.86 439.69ZM271.31 284.35C272.14 282.62 273.54 281.18 275.35 280.33L316 261.39C318.26 260.34 320.87 260.34 323.12 261.39L363.84 280.33C366 281.34 367.59 283.19 368.3 285.39 368.4 286.95 368.49 288.5 368.58 290.05 368.11 292.73 366.38 295.06 363.86 296.24L323.14 315.3C320.87 316.36 318.25 316.36 315.98 315.3L275.34 296.24C273.88 295.55 272.67 294.48 271.83 293.17 271.71 290.98 271.6 288.79 271.46 286.6 271.41 285.85 271.36 285.1 271.31 284.35ZM363.86 81.08 323.14 100.14C320.87 101.2 318.25 101.2 315.98 100.14L275.34 81.08C272.38 79.69 270.48 76.71 270.48 73.44L270.48 72.81C270.48 69.53 272.38 66.54 275.36 65.16L316 46.22C318.26 45.17 320.87 45.17 323.12 46.22L363.84 65.16C365.15 65.77 366.24 66.7 367.06 67.82L366.88 70.55C366.69 73.47 366.5 76.39 366.3 79.31 365.61 80.03 364.8 80.64 363.86 81.08ZM268.98 85.74C268.99 85.66 268.99 85.57 269 85.49L314 106.56C317.52 108.21 321.6 108.21 325.12 106.56L365.77 87.56C364.86 101.23 363.93 115.19 363.21 129.19L325.12 111.39C321.6 109.74 317.52 109.74 314 111.39L268.98 132.46C267.9 132.97 266.92 133.62 266.04 134.38 266.84 118.1 267.92 101.69 268.98 85.74ZM364.04 224.42C363.98 224.45 363.92 224.5 363.86 224.53L323.14 243.59C320.87 244.65 318.25 244.65 315.98 243.59L275.34 224.53C272.38 223.14 270.48 220.16 270.48 216.89L270.48 216.26C270.48 212.98 272.38 209.99 275.36 208.61L316 189.67C318.26 188.62 320.87 188.62 323.12 189.67L363.09 208.26C363.37 213.66 363.69 219.05 364.04 224.42ZM362.85 136.42C362.59 142.06 362.36 147.71 362.19 153.34 362.19 153.42 362.19 153.5 362.18 153.58L323.13 171.86C320.86 172.92 318.24 172.92 315.97 171.86L275.33 152.8C272.37 151.41 270.47 148.43 270.47 145.16L270.47 144.53C270.47 141.25 272.37 138.26 275.35 136.88L316 117.95C318.26 116.9 320.87 116.9 323.12 117.95L362.85 136.42ZM265.27 154.59C266.33 155.65 267.57 156.55 268.98 157.21L314 178.28C317.52 179.93 321.6 179.93 325.12 178.28L362.03 161.03C361.83 174.3 362.14 187.54 362.72 200.69L325.12 183.11C321.6 181.46 317.52 181.46 314 183.11L268.98 204.18C267.82 204.72 266.77 205.43 265.84 206.26 265.03 189.11 264.84 171.8 265.27 154.59ZM267.15 227.88C267.73 228.27 268.33 228.63 268.98 228.93L314 250.01C317.52 251.66 321.6 251.66 325.12 250.01L364.52 231.59C365 238.53 365.5 245.44 366.01 252.29 366.55 259.66 367.1 267.16 367.61 274.7L325.12 254.84C321.6 253.19 317.52 253.19 314 254.84L270.69 275.11C270.14 267.31 269.54 259.51 268.95 251.9 268.34 244.02 267.72 235.96 267.15 227.88ZM366.34 704.44 325.11 685.17C321.59 683.52 317.51 683.52 313.99 685.17L269.1 706.18C270.09 691.56 270.94 676.22 271.43 660.42L314 680.34C317.52 681.99 321.6 681.99 325.12 680.34L369.18 659.75C368.55 674.72 367.5 689.65 366.34 704.44ZM271.68 651.53C271.75 648.37 271.8 645.2 271.84 642.01 272.69 640.7 273.89 639.62 275.36 638.94L316 620.01C318.26 618.96 320.87 618.96 323.12 620.01L363.84 638.95C366.82 640.33 368.72 643.32 368.72 646.6L368.72 647.22C368.72 650.5 366.82 653.48 363.86 654.86L323.14 673.92C320.87 674.98 318.25 674.98 315.98 673.92L275.34 654.86C273.77 654.13 272.52 652.95 271.68 651.53ZM325.12 613.45C321.6 611.8 317.52 611.8 314 613.45L271.88 633.16C271.89 618.37 271.47 603.33 270.49 588.24L314 608.62C317.52 610.27 321.6 610.27 325.12 608.62L367.65 588.74C367.77 590.41 367.9 592.07 368.05 593.73 369.3 607.19 369.78 620.74 369.76 634.31L325.12 613.45ZM368.35 418.49 325.12 398.28C321.6 396.63 317.52 396.63 314 398.28L271.53 418.16C272.15 404.16 272.67 389.45 272.97 374.25L313.99 393.45C317.51 395.1 321.59 395.1 325.11 393.45L369.84 372.54C369.53 387.94 368.98 403.27 368.35 418.49ZM273.11 366.43C273.17 362.14 273.22 357.83 273.24 353.47 273.86 352.9 274.57 352.42 275.36 352.05L316 333.12C318.26 332.07 320.87 332.07 323.12 333.12L363.84 352.06C366.82 353.44 368.72 356.43 368.72 359.71L368.72 360.33C368.72 363.61 366.82 366.59 363.86 367.97L323.14 387.03C320.87 388.09 318.25 388.09 315.98 387.03L275.34 367.97C274.5 367.58 273.76 367.05 273.11 366.43ZM325.12 326.56C321.6 324.91 317.52 324.91 314 326.56L273.24 345.64C273.21 331.4 272.92 316.87 272.27 302.19L314 321.73C317.52 323.38 321.6 323.38 325.12 321.73L369.18 301.14C369.91 316.6 370.19 332.11 370.15 347.61L325.12 326.56Z" fill="#E76F51"/></g></g></svg>