<svg width="1280" height="45" viewBox="0 0 1280 45" xmlns="http://www.w3.org/2000/svg" xmlns:xlink="http://www.w3.org/1999/xlink" overflow="visible"><defs></defs><g><path d="M0 19.5C2.6 19.81 5.47 20.03 8.45 20.13 101.93 23.34 195.45 18.66 287.71 15.06 327.31 13.52 367.1 12.19 407.14 11.79 450.44 11.36 493.68 12.19 536.81 13.1 622.37 14.91 707.63 15.86 793.22 13.57 835.36 12.44 877.23 10.74 919.39 9.65 962.71 8.53 1005.87 8.39 1049.29 9.21 1091.73 10.01 1134.03 11.34 1176.33 12.51 1198.29 13.12 1220.26 13.73 1242.22 14.33 1253.48 14.64 1264.75 14.95 1276.01 15.27 1277.42 15.31 1278.74 15.34 1280 15.36L1280 4.69C1269.1 4.38 1258.19 4.09 1247.29 3.79 1222.51 3.1 1197.73 2.42 1172.95 1.73 1152.55 1.17 1132.15 0.56 1111.73 4.44089e-16L888.76 4.44089e-16C849.24 1.18 809.76 2.61 769.95 3.44 682.93 5.26 596.91 3.55 510.13 1.87 467.25 1.04 424.4 0.66 381.47 1.48 338.91 2.29 296.64 3.95 254.48 5.64 173.1 8.91 90.82 12.28 8.45 9.45 5.46 9.34 2.6 9.5 0 9.84L0 19.5Z" fill="#E9C369"/><path d="M1280 31.7C1279 31.66 1278.01 31.62 1277.01 31.58 1264.63 31.11 1252.23 30.7 1239.84 30.25 1215.06 29.37 1190.28 28.48 1165.5 27.6 1117.17 25.87 1068.79 23.83 1020.23 23.01 933.36 21.55 848.69 27.47 762.51 29.8 675.49 32.15 589.47 29.94 502.69 27.77 459.81 26.7 416.96 26.21 374.03 27.27 332.37 28.29 291.02 30.38 249.76 32.51 167.5 36.77 84.25 41.24 1 37.54 0.66 37.53 0.33 37.52 0 37.52L0 44.38C0.33 44.4 0.67 44.42 1 44.44 5.91 44.66 10.82 44.84 15.73 45L123.03 45C174.77 43.59 226.33 40.6 277.54 38.02 318.04 35.98 358.73 34.21 399.69 33.68 442.99 33.12 486.23 34.19 529.36 35.37 614.92 37.71 700.18 38.93 785.77 35.97 827.91 34.52 869.78 32.32 911.94 30.92 955.26 29.48 998.42 29.29 1041.84 30.35 1084.28 31.38 1126.58 33.1 1168.88 34.61 1190.84 35.39 1212.81 36.18 1234.77 36.96 1246.03 37.36 1257.3 37.76 1268.56 38.17 1272.32 38.3 1276.22 38.38 1280 38.58L1280 31.7Z" fill="#E76F51"/></g></svg>